<svg width="1120" height="48" viewBox="0 0 1120 48" fill="none" xmlns="http://www.w3.org/2000/svg">
<line y1="11.75" x2="548" y2="11.75" stroke="url(#paint0_linear_332_2064)" stroke-width="0.5" stroke-dasharray="3 3"/>
<path fill-rule="evenodd" clip-rule="evenodd" d="M572 12C572 18.6274 566.627 24 560 24C553.373 24 548 18.6274 548 12C548 5.37258 553.373 0 560 0C566.627 0 572 5.37258 572 12ZM560 18C559.448 18 559 17.5523 559 17V13H555C554.448 13 554 12.5523 554 12C554 11.4477 554.448 11 555 11H559V7C559 6.44771 559.448 6 560 6C560.552 6 561 6.44771 561 7V11H565C565.552 11 566 11.4477 566 12C566 12.5523 565.552 13 565 13H561V17C561 17.5523 560.552 18 560 18Z" fill="black"/>
<line x1="1120" y1="12.25" x2="572" y2="12.25" stroke="url(#paint1_linear_332_2064)" stroke-width="0.5" stroke-dasharray="3 3"/>
<path d="M501.252 45H499.96L503.698 34.8182H504.971L508.71 45H507.417L504.375 36.429H504.295L501.252 45ZM501.73 41.0227H506.94V42.1165H501.73V41.0227ZM513.12 45.1591C512.484 45.1591 511.922 44.9983 511.435 44.6768C510.948 44.352 510.566 43.8946 510.291 43.3047C510.016 42.7114 509.879 42.0104 509.879 41.2017C509.879 40.3996 510.016 39.7036 510.291 39.1136C510.566 38.5237 510.949 38.0679 511.44 37.7464C511.93 37.425 512.497 37.2642 513.14 37.2642C513.637 37.2642 514.03 37.3471 514.318 37.5128C514.61 37.6752 514.832 37.8608 514.984 38.0696C515.14 38.2751 515.261 38.4441 515.347 38.5767H515.447V34.8182H516.62V45H515.487V43.8267H515.347C515.261 43.9659 515.139 44.1416 514.98 44.3537C514.82 44.5625 514.593 44.7498 514.298 44.9155C514.003 45.0779 513.611 45.1591 513.12 45.1591ZM513.279 44.1051C513.75 44.1051 514.148 43.9825 514.472 43.7372C514.797 43.4886 515.044 43.1456 515.213 42.7081C515.382 42.2673 515.467 41.7585 515.467 41.1818C515.467 40.6117 515.384 40.1129 515.218 39.6854C515.052 39.2545 514.807 38.9197 514.482 38.6811C514.158 38.4392 513.756 38.3182 513.279 38.3182C512.782 38.3182 512.368 38.4458 512.036 38.701C511.708 38.9529 511.461 39.2959 511.296 39.7301C511.133 40.161 511.052 40.6449 511.052 41.1818C511.052 41.7254 511.135 42.2192 511.301 42.6634C511.47 43.1042 511.718 43.4555 512.046 43.7173C512.378 43.9759 512.789 44.1051 513.279 44.1051ZM521.915 45.1591C521.279 45.1591 520.717 44.9983 520.23 44.6768C519.743 44.352 519.362 43.8946 519.087 43.3047C518.812 42.7114 518.674 42.0104 518.674 41.2017C518.674 40.3996 518.812 39.7036 519.087 39.1136C519.362 38.5237 519.745 38.0679 520.235 37.7464C520.726 37.425 521.292 37.2642 521.935 37.2642C522.432 37.2642 522.825 37.3471 523.114 37.5128C523.405 37.6752 523.627 37.8608 523.78 38.0696C523.936 38.2751 524.057 38.4441 524.143 38.5767H524.242V34.8182H525.415V45H524.282V43.8267H524.143C524.057 43.9659 523.934 44.1416 523.775 44.3537C523.616 44.5625 523.389 44.7498 523.094 44.9155C522.799 45.0779 522.406 45.1591 521.915 45.1591ZM522.075 44.1051C522.545 44.1051 522.943 43.9825 523.268 43.7372C523.593 43.4886 523.839 43.1456 524.008 42.7081C524.178 42.2673 524.262 41.7585 524.262 41.1818C524.262 40.6117 524.179 40.1129 524.013 39.6854C523.848 39.2545 523.602 38.9197 523.278 38.6811C522.953 38.4392 522.552 38.3182 522.075 38.3182C521.577 38.3182 521.163 38.4458 520.832 38.701C520.504 38.9529 520.257 39.2959 520.091 39.7301C519.928 40.161 519.847 40.6449 519.847 41.1818C519.847 41.7254 519.93 42.2192 520.096 42.6634C520.265 43.1042 520.513 43.4555 520.842 43.7173C521.173 43.9759 521.584 44.1051 522.075 44.1051ZM540.098 34.8182V45H538.905L533.356 37.0057H533.257V45H532.024V34.8182H533.217L538.785 42.8324H538.885V34.8182H540.098ZM545.707 45.1591C544.972 45.1591 544.337 44.9967 543.803 44.6719C543.273 44.3438 542.864 43.8864 542.575 43.2997C542.29 42.7098 542.148 42.0237 542.148 41.2415C542.148 40.4593 542.29 39.7699 542.575 39.1733C542.864 38.5734 543.265 38.1061 543.778 37.7713C544.296 37.4332 544.899 37.2642 545.588 37.2642C545.986 37.2642 546.379 37.3305 546.766 37.4631C547.154 37.5956 547.507 37.8111 547.825 38.1094C548.144 38.4044 548.397 38.7955 548.586 39.2827C548.775 39.7699 548.869 40.3698 548.869 41.0824V41.5795H542.983V40.5653H547.676C547.676 40.1345 547.59 39.75 547.418 39.4119C547.249 39.0739 547.007 38.8071 546.692 38.6115C546.38 38.416 546.012 38.3182 545.588 38.3182C545.121 38.3182 544.716 38.4342 544.375 38.6662C544.037 38.8949 543.777 39.1932 543.595 39.5611C543.412 39.929 543.321 40.3234 543.321 40.7443V41.4205C543.321 41.9972 543.421 42.486 543.619 42.8871C543.822 43.2848 544.102 43.5881 544.46 43.7969C544.818 44.0024 545.233 44.1051 545.707 44.1051C546.016 44.1051 546.294 44.062 546.543 43.9759C546.795 43.8864 547.012 43.7538 547.194 43.5781C547.376 43.3991 547.517 43.1771 547.617 42.9119L548.75 43.2301C548.631 43.6146 548.43 43.9527 548.149 44.2443C547.867 44.5327 547.519 44.758 547.104 44.9205C546.69 45.0795 546.224 45.1591 545.707 45.1591ZM552.484 45L550.158 37.3636H551.391L553.041 43.2102H553.121L554.751 37.3636H556.004L557.615 43.1903H557.695L559.345 37.3636H560.578L558.251 45H557.098L555.427 39.1335H555.308L553.638 45H552.484ZM566.843 45H565.551L569.289 34.8182H570.562L574.301 45H573.008L569.966 36.429H569.886L566.843 45ZM567.321 41.0227H572.531V42.1165H567.321V41.0227ZM578.711 45.1591C578.075 45.1591 577.513 44.9983 577.026 44.6768C576.539 44.352 576.157 43.8946 575.882 43.3047C575.607 42.7114 575.47 42.0104 575.47 41.2017C575.47 40.3996 575.607 39.7036 575.882 39.1136C576.157 38.5237 576.54 38.0679 577.031 37.7464C577.521 37.425 578.088 37.2642 578.731 37.2642C579.228 37.2642 579.621 37.3471 579.909 37.5128C580.201 37.6752 580.423 37.8608 580.575 38.0696C580.731 38.2751 580.852 38.4441 580.938 38.5767H581.038V34.8182H582.211V45H581.078V43.8267H580.938C580.852 43.9659 580.73 44.1416 580.571 44.3537C580.411 44.5625 580.184 44.7498 579.889 44.9155C579.594 45.0779 579.202 45.1591 578.711 45.1591ZM578.87 44.1051C579.341 44.1051 579.739 43.9825 580.063 43.7372C580.388 43.4886 580.635 43.1456 580.804 42.7081C580.973 42.2673 581.058 41.7585 581.058 41.1818C581.058 40.6117 580.975 40.1129 580.809 39.6854C580.643 39.2545 580.398 38.9197 580.073 38.6811C579.749 38.4392 579.348 38.3182 578.87 38.3182C578.373 38.3182 577.959 38.4458 577.627 38.701C577.299 38.9529 577.052 39.2959 576.887 39.7301C576.724 40.161 576.643 40.6449 576.643 41.1818C576.643 41.7254 576.726 42.2192 576.892 42.6634C577.061 43.1042 577.309 43.4555 577.637 43.7173C577.969 43.9759 578.38 44.1051 578.87 44.1051ZM587.506 45.1591C586.87 45.1591 586.308 44.9983 585.821 44.6768C585.334 44.352 584.953 43.8946 584.678 43.3047C584.403 42.7114 584.265 42.0104 584.265 41.2017C584.265 40.3996 584.403 39.7036 584.678 39.1136C584.953 38.5237 585.336 38.0679 585.826 37.7464C586.317 37.425 586.883 37.2642 587.526 37.2642C588.024 37.2642 588.416 37.3471 588.705 37.5128C588.996 37.6752 589.218 37.8608 589.371 38.0696C589.527 38.2751 589.648 38.4441 589.734 38.5767H589.833V34.8182H591.006V45H589.873V43.8267H589.734C589.648 43.9659 589.525 44.1416 589.366 44.3537C589.207 44.5625 588.98 44.7498 588.685 44.9155C588.39 45.0779 587.997 45.1591 587.506 45.1591ZM587.666 44.1051C588.136 44.1051 588.534 43.9825 588.859 43.7372C589.184 43.4886 589.43 43.1456 589.599 42.7081C589.769 42.2673 589.853 41.7585 589.853 41.1818C589.853 40.6117 589.77 40.1129 589.604 39.6854C589.439 39.2545 589.193 38.9197 588.869 38.6811C588.544 38.4392 588.143 38.3182 587.666 38.3182C587.168 38.3182 586.754 38.4458 586.423 38.701C586.095 38.9529 585.848 39.2959 585.682 39.7301C585.519 40.161 585.438 40.6449 585.438 41.1818C585.438 41.7254 585.521 42.2192 585.687 42.6634C585.856 43.1042 586.104 43.4555 586.433 43.7173C586.764 43.9759 587.175 44.1051 587.666 44.1051ZM593.418 45V37.3636H594.552V38.517H594.631C594.771 38.1392 595.022 37.8326 595.387 37.5973C595.752 37.362 596.163 37.2443 596.62 37.2443C596.706 37.2443 596.814 37.246 596.943 37.2493C597.072 37.2526 597.17 37.2576 597.236 37.2642V38.4574C597.197 38.4474 597.106 38.4325 596.963 38.4126C596.824 38.3894 596.676 38.3778 596.521 38.3778C596.149 38.3778 595.818 38.4557 595.526 38.6115C595.238 38.764 595.009 38.9761 594.84 39.2479C594.674 39.5163 594.592 39.8229 594.592 40.1676V45H593.418ZM601.697 45.1591C600.961 45.1591 600.326 44.9967 599.792 44.6719C599.262 44.3438 598.853 43.8864 598.564 43.2997C598.279 42.7098 598.137 42.0237 598.137 41.2415C598.137 40.4593 598.279 39.7699 598.564 39.1733C598.853 38.5734 599.254 38.1061 599.768 37.7713C600.285 37.4332 600.888 37.2642 601.577 37.2642C601.975 37.2642 602.368 37.3305 602.755 37.4631C603.143 37.5956 603.496 37.8111 603.814 38.1094C604.133 38.4044 604.386 38.7955 604.575 39.2827C604.764 39.7699 604.858 40.3698 604.858 41.0824V41.5795H598.972V40.5653H603.665C603.665 40.1345 603.579 39.75 603.407 39.4119C603.238 39.0739 602.996 38.8071 602.681 38.6115C602.369 38.416 602.001 38.3182 601.577 38.3182C601.11 38.3182 600.706 38.4342 600.364 38.6662C600.026 38.8949 599.766 39.1932 599.584 39.5611C599.401 39.929 599.31 40.3234 599.31 40.7443V41.4205C599.31 41.9972 599.41 42.486 599.608 42.8871C599.811 43.2848 600.091 43.5881 600.449 43.7969C600.807 44.0024 601.223 44.1051 601.697 44.1051C602.005 44.1051 602.283 44.062 602.532 43.9759C602.784 43.8864 603.001 43.7538 603.183 43.5781C603.365 43.3991 603.506 43.1771 603.606 42.9119L604.739 43.2301C604.62 43.6146 604.419 43.9527 604.138 44.2443C603.856 44.5327 603.508 44.758 603.094 44.9205C602.679 45.0795 602.214 45.1591 601.697 45.1591ZM612.152 39.0739L611.098 39.3722C611.032 39.1965 610.934 39.0258 610.805 38.8601C610.679 38.6911 610.507 38.5518 610.288 38.4425C610.069 38.3331 609.789 38.2784 609.448 38.2784C608.98 38.2784 608.591 38.3861 608.279 38.6016C607.971 38.8137 607.817 39.0838 607.817 39.4119C607.817 39.7036 607.923 39.9339 608.135 40.103C608.347 40.272 608.679 40.4129 609.13 40.5256L610.263 40.804C610.946 40.9697 611.455 41.2232 611.789 41.5646C612.124 41.9027 612.292 42.3385 612.292 42.8722C612.292 43.3097 612.166 43.7008 611.914 44.0455C611.665 44.3902 611.317 44.6619 610.87 44.8608C610.422 45.0597 609.902 45.1591 609.309 45.1591C608.53 45.1591 607.885 44.9901 607.375 44.652C606.864 44.3139 606.541 43.8201 606.405 43.1705L607.519 42.892C607.625 43.303 607.825 43.6113 608.12 43.8168C608.419 44.0223 608.808 44.125 609.289 44.125C609.836 44.125 610.27 44.009 610.591 43.777C610.916 43.5417 611.078 43.2599 611.078 42.9318C611.078 42.6667 610.986 42.4446 610.8 42.2656C610.614 42.0833 610.329 41.9474 609.945 41.858L608.672 41.5597C607.973 41.3939 607.459 41.1371 607.131 40.7891C606.806 40.4377 606.644 39.9986 606.644 39.4716C606.644 39.0407 606.765 38.6596 607.007 38.3281C607.252 37.9967 607.585 37.7365 608.006 37.5476C608.43 37.3587 608.911 37.2642 609.448 37.2642C610.203 37.2642 610.797 37.4299 611.228 37.7614C611.662 38.0928 611.97 38.5303 612.152 39.0739ZM619.567 39.0739L618.513 39.3722C618.447 39.1965 618.349 39.0258 618.219 38.8601C618.094 38.6911 617.921 38.5518 617.702 38.4425C617.484 38.3331 617.204 38.2784 616.862 38.2784C616.395 38.2784 616.005 38.3861 615.694 38.6016C615.386 38.8137 615.232 39.0838 615.232 39.4119C615.232 39.7036 615.338 39.9339 615.55 40.103C615.762 40.272 616.093 40.4129 616.544 40.5256L617.678 40.804C618.36 40.9697 618.869 41.2232 619.204 41.5646C619.539 41.9027 619.706 42.3385 619.706 42.8722C619.706 43.3097 619.58 43.7008 619.328 44.0455C619.08 44.3902 618.732 44.6619 618.284 44.8608C617.837 45.0597 617.316 45.1591 616.723 45.1591C615.944 45.1591 615.3 44.9901 614.789 44.652C614.279 44.3139 613.956 43.8201 613.82 43.1705L614.933 42.892C615.039 43.303 615.24 43.6113 615.535 43.8168C615.833 44.0223 616.223 44.125 616.703 44.125C617.25 44.125 617.684 44.009 618.006 43.777C618.331 43.5417 618.493 43.2599 618.493 42.9318C618.493 42.6667 618.4 42.4446 618.215 42.2656C618.029 42.0833 617.744 41.9474 617.359 41.858L616.087 41.5597C615.387 41.3939 614.874 41.1371 614.545 40.7891C614.221 40.4377 614.058 39.9986 614.058 39.4716C614.058 39.0407 614.179 38.6596 614.421 38.3281C614.666 37.9967 615 37.7365 615.42 37.5476C615.845 37.3587 616.325 37.2642 616.862 37.2642C617.618 37.2642 618.211 37.4299 618.642 37.7614C619.076 38.0928 619.384 38.5303 619.567 39.0739Z" fill="black"/>
<defs>
<linearGradient id="paint0_linear_332_2064" x1="555.117" y1="12" x2="0" y2="12" gradientUnits="userSpaceOnUse">
<stop/>
<stop offset="1" stop-color="#E6E6E6"/>
</linearGradient>
<linearGradient id="paint1_linear_332_2064" x1="564.883" y1="12" x2="1120" y2="12" gradientUnits="userSpaceOnUse">
<stop/>
<stop offset="1" stop-color="#E6E6E6"/>
</linearGradient>
</defs>
</svg>
