<svg width="184" height="192" viewBox="0 0 184 192" fill="none" xmlns="http://www.w3.org/2000/svg">
<rect width="184" height="192" rx="25" fill="#FAFAFA"/>
<path d="M52.5703 72.0455V67.0739L70.1697 39.2727H74.0874V46.5909H71.6016L59.0135 66.517V66.8352H83.1357V72.0455H52.5703ZM71.88 80V70.5341L71.9197 68.267V39.2727H77.7464V80H71.88ZM92.532 80.3778C91.4448 80.3778 90.5102 79.9934 89.728 79.2244C88.9458 78.4422 88.5547 77.5009 88.5547 76.4006C88.5547 75.3134 88.9458 74.3854 89.728 73.6165C90.5102 72.8343 91.4448 72.4432 92.532 72.4432C93.6191 72.4432 94.5537 72.8343 95.3359 73.6165C96.1181 74.3854 96.5092 75.3134 96.5092 76.4006C96.5092 77.1297 96.3236 77.7992 95.9524 78.4091C95.5945 79.0057 95.1172 79.483 94.5206 79.8409C93.924 80.1989 93.2611 80.3778 92.532 80.3778ZM116.788 80.5568C113.938 80.5568 111.419 80.0663 109.232 79.0852C107.057 78.1042 105.354 76.7519 104.121 75.0284C102.888 73.3049 102.278 71.3428 102.291 69.142C102.278 67.4186 102.629 65.8343 103.345 64.3892C104.074 62.9309 105.062 61.7178 106.308 60.75C107.554 59.7689 108.946 59.1458 110.484 58.8807V58.642C108.456 58.1515 106.832 57.0644 105.612 55.3807C104.393 53.697 103.789 51.7614 103.803 49.5739C103.789 47.4924 104.339 45.6364 105.453 44.0057C106.58 42.3617 108.125 41.0691 110.087 40.1278C112.049 39.1866 114.283 38.7159 116.788 38.7159C119.268 38.7159 121.482 39.1932 123.43 40.1477C125.393 41.089 126.937 42.3816 128.064 44.0256C129.191 45.6562 129.761 47.5057 129.774 49.5739C129.761 51.7614 129.138 53.697 127.905 55.3807C126.672 57.0644 125.068 58.1515 123.092 58.642V58.8807C124.617 59.1458 125.989 59.7689 127.209 60.75C128.442 61.7178 129.423 62.9309 130.152 64.3892C130.894 65.8343 131.272 67.4186 131.286 69.142C131.272 71.3428 130.649 73.3049 129.416 75.0284C128.183 76.7519 126.473 78.1042 124.286 79.0852C122.111 80.0663 119.612 80.5568 116.788 80.5568ZM116.788 75.5256C118.472 75.5256 119.93 75.2472 121.163 74.6903C122.396 74.1203 123.351 73.3314 124.027 72.3239C124.703 71.303 125.048 70.1098 125.061 68.7443C125.048 67.3258 124.677 66.0729 123.947 64.9858C123.232 63.8987 122.257 63.0436 121.024 62.4205C119.791 61.7973 118.379 61.4858 116.788 61.4858C115.184 61.4858 113.759 61.7973 112.513 62.4205C111.267 63.0436 110.286 63.8987 109.57 64.9858C108.854 66.0729 108.502 67.3258 108.516 68.7443C108.502 70.1098 108.827 71.303 109.49 72.3239C110.166 73.3314 111.127 74.1203 112.374 74.6903C113.62 75.2472 115.091 75.5256 116.788 75.5256ZM116.788 56.5739C118.141 56.5739 119.34 56.3021 120.388 55.7585C121.435 55.215 122.257 54.4593 122.854 53.4915C123.464 52.5237 123.775 51.3902 123.788 50.0909C123.775 48.8182 123.47 47.7045 122.874 46.75C122.29 45.7955 121.475 45.0597 120.428 44.5426C119.38 44.0123 118.167 43.7472 116.788 43.7472C115.383 43.7472 114.15 44.0123 113.089 44.5426C112.042 45.0597 111.227 45.7955 110.643 46.75C110.06 47.7045 109.775 48.8182 109.788 50.0909C109.775 51.3902 110.067 52.5237 110.663 53.4915C111.26 54.4593 112.082 55.215 113.129 55.7585C114.19 56.3021 115.41 56.5739 116.788 56.5739Z" fill="black"/>
<path opacity="0.3" d="M44.7275 117.165C43.9604 117.165 43.2911 116.989 42.7193 116.638C42.1476 116.286 41.7037 115.794 41.3877 115.162C41.0716 114.53 40.9136 113.792 40.9136 112.946C40.9136 112.098 41.0716 111.355 41.3877 110.72C41.7037 110.084 42.1476 109.591 42.7193 109.239C43.2911 108.887 43.9604 108.712 44.7275 108.712C45.4945 108.712 46.1639 108.887 46.7357 109.239C47.3074 109.591 47.7513 110.084 48.0673 110.72C48.3834 111.355 48.5414 112.098 48.5414 112.946C48.5414 113.792 48.3834 114.53 48.0673 115.162C47.7513 115.794 47.3074 116.286 46.7357 116.638C46.1639 116.989 45.4945 117.165 44.7275 117.165ZM44.7328 115.828C45.23 115.828 45.6419 115.697 45.9686 115.434C46.2953 115.171 46.5368 114.821 46.693 114.385C46.8529 113.948 46.9328 113.467 46.9328 112.941C46.9328 112.419 46.8529 111.94 46.693 111.503C46.5368 111.062 46.2953 110.709 45.9686 110.443C45.6419 110.176 45.23 110.043 44.7328 110.043C44.2321 110.043 43.8166 110.176 43.4864 110.443C43.1597 110.709 42.9164 111.062 42.7566 111.503C42.6004 111.94 42.5222 112.419 42.5222 112.941C42.5222 113.467 42.6004 113.948 42.7566 114.385C42.9164 114.821 43.1597 115.171 43.4864 115.434C43.8166 115.697 44.2321 115.828 44.7328 115.828ZM54.213 108.818V110.097H49.5894V108.818H54.213ZM50.8572 117V107.87C50.8572 107.359 50.9691 106.934 51.1928 106.597C51.4165 106.256 51.713 106.002 52.0823 105.835C52.4517 105.665 52.8529 105.58 53.2862 105.58C53.6058 105.58 53.8792 105.606 54.1065 105.659C54.3338 105.709 54.5024 105.755 54.6125 105.798L54.2397 107.087C54.1651 107.066 54.0692 107.041 53.952 107.012C53.8348 106.98 53.6928 106.964 53.5259 106.964C53.1388 106.964 52.8618 107.06 52.6949 107.252C52.5316 107.444 52.4499 107.721 52.4499 108.083V117H50.8572ZM63.9436 106.091V117H62.2923V107.742H62.2284L59.6183 109.447V107.87L62.3402 106.091H63.9436ZM66.8946 117V115.807L70.586 111.982C70.9802 111.567 71.3051 111.203 71.5608 110.89C71.82 110.574 72.0135 110.274 72.1414 109.99C72.2692 109.706 72.3331 109.404 72.3331 109.085C72.3331 108.722 72.2479 108.41 72.0775 108.147C71.907 107.881 71.6744 107.676 71.3797 107.534C71.0849 107.389 70.7529 107.316 70.3836 107.316C69.9929 107.316 69.652 107.396 69.3608 107.556C69.0696 107.716 68.8459 107.941 68.6897 108.232C68.5334 108.523 68.4553 108.864 68.4553 109.255H66.8839C66.8839 108.591 67.0366 108.01 67.342 107.513C67.6474 107.016 68.0665 106.631 68.5991 106.357C69.1318 106.08 69.7373 105.942 70.4155 105.942C71.1009 105.942 71.7046 106.078 72.2266 106.352C72.7522 106.622 73.1623 106.991 73.4571 107.46C73.7518 107.925 73.8992 108.451 73.8992 109.037C73.8992 109.441 73.8228 109.837 73.6701 110.224C73.521 110.612 73.26 111.043 72.8871 111.519C72.5142 111.991 71.9958 112.565 71.3317 113.239L69.1638 115.509V115.588H74.075V117H66.8946ZM79.6946 117.149C79.027 117.149 78.4269 117.021 77.8942 116.766C77.3651 116.506 76.9425 116.151 76.6265 115.7C76.3104 115.249 76.1417 114.734 76.1204 114.156H77.7184C77.7575 114.624 77.9652 115.01 78.3417 115.311C78.7181 115.613 79.1691 115.764 79.6946 115.764C80.1137 115.764 80.4848 115.668 80.8079 115.477C81.1346 115.281 81.3903 115.013 81.575 114.672C81.7632 114.331 81.8573 113.942 81.8573 113.506C81.8573 113.062 81.7614 112.666 81.5696 112.318C81.3779 111.97 81.1133 111.696 80.776 111.498C80.4422 111.299 80.0586 111.197 79.6254 111.194C79.2951 111.194 78.9631 111.251 78.6293 111.364C78.2955 111.478 78.0256 111.627 77.8196 111.812L76.3122 111.588L76.9248 106.091H82.9226V107.502H78.2937L77.9475 110.555H78.0114C78.2245 110.349 78.5068 110.176 78.8584 110.038C79.2135 109.9 79.5934 109.83 79.9983 109.83C80.6623 109.83 81.2536 109.988 81.7721 110.304C82.2941 110.62 82.7042 111.052 83.0025 111.599C83.3044 112.142 83.4535 112.767 83.45 113.474C83.4535 114.18 83.2937 114.811 82.9706 115.365C82.651 115.919 82.2071 116.355 81.6389 116.675C81.0743 116.991 80.4262 117.149 79.6946 117.149ZM89.3866 117V108.818H90.926V110.118H91.0112C91.1604 109.678 91.4232 109.331 91.7996 109.079C92.1796 108.824 92.6092 108.696 93.0886 108.696C93.1881 108.696 93.3053 108.699 93.4402 108.706C93.5787 108.713 93.687 108.722 93.7651 108.733V110.256C93.7012 110.239 93.5876 110.219 93.4242 110.198C93.2609 110.173 93.0975 110.161 92.9342 110.161C92.5578 110.161 92.2222 110.24 91.9274 110.4C91.6362 110.556 91.4054 110.775 91.235 111.055C91.0645 111.332 90.9793 111.648 90.9793 112.004V117H89.3866ZM98.3767 117.165C97.5706 117.165 96.8764 116.993 96.294 116.648C95.7152 116.3 95.2677 115.812 94.9517 115.184C94.6392 114.551 94.4829 113.811 94.4829 112.962C94.4829 112.124 94.6392 111.386 94.9517 110.746C95.2677 110.107 95.7081 109.608 96.2727 109.25C96.8409 108.891 97.5049 108.712 98.2649 108.712C98.7265 108.712 99.174 108.788 99.6072 108.941C100.04 109.093 100.429 109.333 100.774 109.66C101.118 109.987 101.39 110.411 101.589 110.933C101.788 111.451 101.887 112.082 101.887 112.824V113.388H95.3831V112.195H100.326C100.326 111.776 100.241 111.405 100.071 111.082C99.9002 110.755 99.6605 110.498 99.3515 110.31C99.0461 110.121 98.6875 110.027 98.2755 110.027C97.8281 110.027 97.4375 110.137 97.1036 110.358C96.7734 110.574 96.5177 110.858 96.3366 111.21C96.159 111.558 96.0703 111.936 96.0703 112.344V113.277C96.0703 113.824 96.1661 114.289 96.3579 114.672C96.5532 115.056 96.8249 115.349 97.1729 115.551C97.5209 115.75 97.9275 115.849 98.3927 115.849C98.6946 115.849 98.9698 115.807 99.2184 115.722C99.4669 115.633 99.6818 115.501 99.8629 115.327C100.044 115.153 100.182 114.939 100.278 114.683L101.786 114.955C101.665 115.398 101.448 115.787 101.136 116.121C100.827 116.451 100.438 116.709 99.9694 116.893C99.5042 117.075 98.9733 117.165 98.3767 117.165ZM110.419 108.818L107.452 117H105.748L102.775 108.818H104.485L106.557 115.114H106.642L108.709 108.818H110.419ZM111.916 117V108.818H113.509V117H111.916ZM112.72 107.556C112.443 107.556 112.205 107.463 112.006 107.279C111.811 107.091 111.713 106.867 111.713 106.608C111.713 106.345 111.811 106.121 112.006 105.936C112.205 105.748 112.443 105.654 112.72 105.654C112.997 105.654 113.233 105.748 113.429 105.936C113.628 106.121 113.727 106.345 113.727 106.608C113.727 106.867 113.628 107.091 113.429 107.279C113.233 107.463 112.997 107.556 112.72 107.556ZM119.178 117.165C118.371 117.165 117.677 116.993 117.095 116.648C116.516 116.3 116.068 115.812 115.752 115.184C115.44 114.551 115.284 113.811 115.284 112.962C115.284 112.124 115.44 111.386 115.752 110.746C116.068 110.107 116.509 109.608 117.073 109.25C117.642 108.891 118.306 108.712 119.066 108.712C119.527 108.712 119.975 108.788 120.408 108.941C120.841 109.093 121.23 109.333 121.575 109.66C121.919 109.987 122.191 110.411 122.39 110.933C122.588 111.451 122.688 112.082 122.688 112.824V113.388H116.184V112.195H121.127C121.127 111.776 121.042 111.405 120.871 111.082C120.701 110.755 120.461 110.498 120.152 110.31C119.847 110.121 119.488 110.027 119.076 110.027C118.629 110.027 118.238 110.137 117.904 110.358C117.574 110.574 117.318 110.858 117.137 111.21C116.96 111.558 116.871 111.936 116.871 112.344V113.277C116.871 113.824 116.967 114.289 117.159 114.672C117.354 115.056 117.626 115.349 117.974 115.551C118.322 115.75 118.728 115.849 119.193 115.849C119.495 115.849 119.771 115.807 120.019 115.722C120.268 115.633 120.483 115.501 120.664 115.327C120.845 115.153 120.983 114.939 121.079 114.683L122.587 114.955C122.466 115.398 122.249 115.787 121.937 116.121C121.628 116.451 121.239 116.709 120.77 116.893C120.305 117.075 119.774 117.165 119.178 117.165ZM126.214 117L123.806 108.818H125.452L127.056 114.827H127.136L128.744 108.818H130.39L131.988 114.8H132.068L133.661 108.818H135.307L132.904 117H131.28L129.618 111.093H129.495L127.833 117H126.214ZM142.949 110.816L141.506 111.071C141.445 110.887 141.349 110.711 141.218 110.544C141.09 110.377 140.916 110.24 140.696 110.134C140.476 110.027 140.201 109.974 139.87 109.974C139.419 109.974 139.043 110.075 138.741 110.278C138.439 110.477 138.288 110.734 138.288 111.05C138.288 111.324 138.39 111.544 138.592 111.711C138.794 111.877 139.121 112.014 139.572 112.121L140.872 112.419C141.625 112.593 142.186 112.861 142.555 113.223C142.924 113.586 143.109 114.056 143.109 114.635C143.109 115.125 142.967 115.562 142.683 115.945C142.402 116.325 142.01 116.624 141.506 116.84C141.005 117.057 140.424 117.165 139.764 117.165C138.848 117.165 138.1 116.97 137.521 116.579C136.943 116.185 136.587 115.626 136.456 114.901L137.995 114.667C138.091 115.068 138.288 115.372 138.587 115.578C138.885 115.78 139.274 115.881 139.753 115.881C140.275 115.881 140.693 115.773 141.005 115.556C141.318 115.336 141.474 115.068 141.474 114.752C141.474 114.496 141.378 114.282 141.186 114.108C140.998 113.934 140.708 113.802 140.318 113.713L138.933 113.41C138.169 113.236 137.605 112.959 137.239 112.579C136.877 112.199 136.696 111.718 136.696 111.135C136.696 110.652 136.831 110.23 137.101 109.868C137.37 109.505 137.743 109.223 138.219 109.021C138.695 108.815 139.24 108.712 139.854 108.712C140.739 108.712 141.435 108.903 141.943 109.287C142.45 109.667 142.786 110.176 142.949 110.816Z" fill="black"/>
<path d="M42.4363 139.356C43.0554 138.027 44.9446 138.027 45.5637 139.356L47.0026 142.444C47.254 142.983 47.7658 143.355 48.3566 143.427L51.7379 143.842C53.1929 144.02 53.7767 145.817 52.7044 146.816L50.2123 149.139C49.7769 149.544 49.5814 150.146 49.6952 150.73L50.346 154.074C50.6261 155.513 49.0977 156.623 47.8159 155.912L44.8368 154.26C44.3163 153.971 43.6837 153.971 43.1632 154.26L40.1841 155.912C38.9023 156.623 37.3739 155.513 37.654 154.074L38.3048 150.73C38.4186 150.146 38.2231 149.544 37.7877 149.139L35.2956 146.816C34.2233 145.817 34.8071 144.02 36.2621 143.842L39.6434 143.427C40.2342 143.355 40.746 142.983 40.9974 142.444L42.4363 139.356Z" fill="#FFB547"/>
<path d="M66.4363 139.356C67.0554 138.027 68.9446 138.027 69.5637 139.356L71.0026 142.444C71.254 142.983 71.7658 143.355 72.3566 143.427L75.7379 143.842C77.1929 144.02 77.7767 145.817 76.7044 146.816L74.2123 149.139C73.7769 149.544 73.5814 150.146 73.6952 150.73L74.346 154.074C74.6261 155.513 73.0977 156.623 71.8159 155.912L68.8368 154.26C68.3163 153.971 67.6837 153.971 67.1632 154.26L64.1841 155.912C62.9023 156.623 61.3739 155.513 61.654 154.074L62.3048 150.73C62.4186 150.146 62.2231 149.544 61.7877 149.139L59.2956 146.816C58.2233 145.817 58.8071 144.02 60.2621 143.842L63.6434 143.427C64.2342 143.355 64.746 142.983 64.9974 142.444L66.4363 139.356Z" fill="#FFB547"/>
<path d="M90.4363 139.356C91.0554 138.027 92.9446 138.027 93.5637 139.356L95.0026 142.444C95.254 142.983 95.7658 143.355 96.3566 143.427L99.7379 143.842C101.193 144.02 101.777 145.817 100.704 146.816L98.2123 149.139C97.7769 149.544 97.5814 150.146 97.6952 150.73L98.346 154.074C98.6261 155.513 97.0977 156.623 95.8159 155.912L92.8368 154.26C92.3163 153.971 91.6837 153.971 91.1632 154.26L88.1841 155.912C86.9023 156.623 85.3739 155.513 85.654 154.074L86.3048 150.73C86.4186 150.146 86.2231 149.544 85.7877 149.139L83.2956 146.816C82.2233 145.817 82.8071 144.02 84.2621 143.842L87.6434 143.427C88.2342 143.355 88.746 142.983 88.9974 142.444L90.4363 139.356Z" fill="#FFB547"/>
<path d="M114.436 139.356C115.055 138.027 116.945 138.027 117.564 139.356L119.003 142.444C119.254 142.983 119.766 143.355 120.357 143.427L123.738 143.842C125.193 144.02 125.777 145.817 124.704 146.816L122.212 149.139C121.777 149.544 121.581 150.146 121.695 150.73L122.346 154.074C122.626 155.513 121.098 156.623 119.816 155.912L116.837 154.26C116.316 153.971 115.684 153.971 115.163 154.26L112.184 155.912C110.902 156.623 109.374 155.513 109.654 154.074L110.305 150.73C110.419 150.146 110.223 149.544 109.788 149.139L107.296 146.816C106.223 145.817 106.807 144.02 108.262 143.842L111.643 143.427C112.234 143.355 112.746 142.983 112.997 142.444L114.436 139.356Z" fill="#FFB547"/>
<path d="M138.89 139.567C139.329 138.624 140.671 138.624 141.11 139.567L142.55 142.655C142.874 143.351 143.534 143.83 144.296 143.924L147.677 144.338C148.71 144.464 149.125 145.74 148.363 146.45L145.871 148.772C145.309 149.296 145.057 150.073 145.204 150.826L145.855 154.17C146.054 155.192 144.969 155.98 144.059 155.476L141.079 153.823C140.408 153.451 139.592 153.451 138.921 153.823L135.941 155.476C135.031 155.98 133.946 155.192 134.145 154.17L134.796 150.826C134.943 150.073 134.691 149.296 134.129 148.772L131.637 146.45C130.875 145.74 131.29 144.464 132.323 144.338L135.704 143.924C136.466 143.83 137.126 143.351 137.45 142.655L138.89 139.567Z" fill="url(#paint0_linear_320_1863)" stroke="#FFB547"/>
<defs>
<linearGradient id="paint0_linear_320_1863" x1="139.119" y1="147.851" x2="147.878" y2="147.851" gradientUnits="userSpaceOnUse">
<stop offset="0.394791" stop-color="#FFB547"/>
<stop offset="0.394891" stop-color="#FFB547" stop-opacity="0"/>
</linearGradient>
</defs>
</svg>
